<svg width="226" height="64" viewBox="0 0 226 64" fill="none" xmlns="http://www.w3.org/2000/svg">
    <path d="M0 0H226V64H0V0Z" fill="#E52823" />
    <path fill-rule="evenodd" clip-rule="evenodd" d="M70.6176 32C70.6176 39.8534 64.6146 43.34 57.2114 43.34C49.8083 43.34 43.852 39.8534 43.852 32C43.852 24.1467 49.8484 20.6614 57.2516 20.6614C64.6547 20.6614 70.6176 24.1467 70.6176 32ZM44.6584 42.6667L32.4611 30.6574L41.8461 21.324H36.9089L27.2778 30.9294V21.3254H21.47V41.288C21.4698 41.4697 21.5057 41.6496 21.5755 41.8174C21.6454 41.9852 21.7478 42.1375 21.877 42.2657C22.0061 42.3938 22.1594 42.4952 22.328 42.564C22.4966 42.6329 22.6772 42.6678 22.8594 42.6667H27.2778V33.2494L35.93 41.816C36.5779 42.378 37.4116 42.6811 38.2702 42.6667H44.6584ZM88.1922 33.1574L95.1059 22.4934C95.3531 22.1534 95.6729 21.8723 96.0422 21.6703C96.4115 21.4683 96.8211 21.3505 97.2415 21.3254H101.637V42.6667H97.2295C96.8565 42.658 96.5018 42.5041 96.2411 42.238C95.9805 41.9719 95.8346 41.6147 95.8347 41.2427V27.7814L89.5014 37.5107C89.2636 37.8377 88.9568 38.1086 88.6026 38.3044C88.2484 38.5002 87.8554 38.6162 87.4513 38.644H86.1595C85.7398 38.6247 85.3297 38.5131 84.9584 38.3172C84.5871 38.1212 84.2638 37.8458 84.0118 37.5107L77.6731 27.7814V42.6667H75.5843C75.2116 42.6583 74.8571 42.5044 74.597 42.2381C74.3369 41.9718 74.192 41.6144 74.1935 41.2427V21.336H78.8018C79.2157 21.3383 79.6238 21.4339 79.9955 21.6156C80.3672 21.7973 80.6929 22.0604 80.9481 22.3854L88.1922 33.1587V33.1574ZM57.2114 23.6214C61.5161 23.6214 64.517 26.208 64.517 32.0014H64.5397C64.5397 37.8014 61.5041 40.3814 57.2342 40.3814C52.9629 40.3814 49.9273 37.7947 49.9273 32.0014C49.9273 26.2067 52.9054 23.6214 57.2114 23.6214ZM174.321 34.1387L180.34 42.6427H174.646C174.228 42.6248 173.819 42.5137 173.449 42.3176C173.079 42.1215 172.759 41.8453 172.51 41.5094L168.216 34.8934H163.312V42.6667H158.887C158.519 42.6671 158.166 42.5223 157.905 42.264C157.644 42.0058 157.495 41.6549 157.493 41.288V21.324H169.263C170.107 21.3384 170.949 21.3949 171.787 21.4934C172.556 21.568 173.318 21.704 174.064 21.9027C174.749 22.0809 175.408 22.3476 176.023 22.696C176.596 23.024 177.108 23.4454 177.538 23.9427C177.977 24.4654 178.315 25.0627 178.535 25.7067C178.778 26.48 178.896 27.288 178.882 28.0987C178.893 28.8349 178.77 29.5668 178.517 30.2587C178.282 30.8827 177.934 31.4587 177.493 31.96C177.454 32.0067 177.407 32.048 177.362 32.0894L177.282 32.164C176.921 32.6014 176.497 32.9827 176.023 33.2974C175.493 33.6469 174.921 33.929 174.321 34.1374V34.1387ZM172.806 26.7387C172.984 27.2134 173.068 27.7187 173.056 28.224C173.068 28.7287 172.983 29.231 172.806 29.704C172.654 30.0871 172.414 30.4291 172.105 30.7027C171.791 30.9709 171.429 31.1784 171.039 31.3147C170.607 31.465 170.158 31.5639 169.702 31.6094C169.188 31.66 168.674 31.6854 168.159 31.6827H163.335V24.7267H168.159C168.674 24.724 169.19 24.7534 169.702 24.8174C170.158 24.8707 170.607 24.976 171.039 25.1294C171.43 25.2654 171.791 25.4734 172.105 25.7414C172.415 26.0134 172.655 26.3547 172.806 26.7387ZM181.403 21.3254V24.7667H190.071V42.6667H194.507C194.688 42.6701 194.867 42.6378 195.035 42.5717C195.204 42.5056 195.357 42.407 195.487 42.2816C195.616 42.1562 195.72 42.0064 195.792 41.841C195.863 41.6755 195.901 41.4975 195.903 41.3174V24.764H204.565V21.3227H181.403V21.3254ZM140.474 43.3414C147.872 43.3414 153.875 39.8547 153.875 32.0014C153.875 24.148 147.878 20.6627 140.474 20.6627C133.071 20.6627 127.07 24.1654 127.07 32.0014C127.07 39.8374 133.077 43.3414 140.474 43.3414ZM147.775 32C147.775 26.2054 144.779 23.62 140.473 23.62C136.168 23.62 133.167 26.2067 133.167 32C133.167 37.7947 136.168 40.38 140.473 40.38C144.779 40.38 147.775 37.8 147.775 32ZM110.736 42.6667H106.334V21.324H124.654V24.844H112.124V30.26H122.911V33.7294H112.125V41.2867C112.126 41.4686 112.09 41.6488 112.02 41.8168C111.95 41.9848 111.848 42.1374 111.718 42.2657C111.589 42.394 111.436 42.4955 111.267 42.5643C111.098 42.6331 110.917 42.6679 110.735 42.6667H110.736Z" fill="white" />
</svg>
    