<svg width="20" height="20" viewBox="0 0 20 20" fill="none" xmlns="http://www.w3.org/2000/svg">
<path fill-rule="evenodd" clip-rule="evenodd" d="M4.65375 3.14713C6.20024 1.91742 8.11751 1.24753 10.0933 1.24658H10.1067C12.4282 1.24658 14.6546 2.16881 16.2962 3.81037C17.9378 5.45194 18.86 7.67839 18.86 9.99992C18.86 12.3214 17.9378 14.5479 16.2962 16.1895C14.6546 17.831 12.4282 18.7532 10.1067 18.7532H1.15332V17.8466H6.24665C4.47264 16.9767 3.04542 15.5318 2.19742 13.7472C1.34943 11.9626 1.13063 9.94353 1.57666 8.01873C2.02268 6.09393 3.10726 4.37684 4.65375 3.14713ZM4.54482 15.5484C6.01635 17.02 8.01218 17.8467 10.0932 17.8467C11.1237 17.8467 12.144 17.6437 13.096 17.2494C14.048 16.855 14.913 16.277 15.6417 15.5484C16.3703 14.8198 16.9483 13.9548 17.3426 13.0028C17.737 12.0508 17.9399 11.0304 17.9399 9.99999C17.9399 8.96955 17.737 7.9492 17.3426 6.9972C16.9483 6.0452 16.3703 5.18019 15.6417 4.45156C14.913 3.72293 14.048 3.14494 13.096 2.75061C12.144 2.35628 11.1237 2.15332 10.0932 2.15332C8.01218 2.15332 6.01635 2.98002 4.54482 4.45156C3.07328 5.92309 2.24658 7.91892 2.24658 9.99999C2.24658 12.0811 3.07328 14.0769 4.54482 15.5484Z" fill="#575756"/>
<path d="M10.0934 16.4933C8.80938 16.4919 7.55462 16.11 6.48767 15.3957C5.42073 14.6814 4.5895 13.6668 4.09906 12.4802C3.60861 11.2936 3.48097 9.9882 3.73227 8.72906C3.98357 7.46991 4.60253 6.31353 5.5109 5.40609C6.41928 4.49865 7.57629 3.88088 8.83569 3.63088C10.0951 3.38087 11.4003 3.50985 12.5865 4.00151C13.7726 4.49317 14.7863 5.32544 15.4995 6.39312C16.2127 7.46079 16.5934 8.71595 16.5934 9.99992C16.5916 11.7227 15.906 13.3743 14.6872 14.5918C13.4684 15.8094 11.8161 16.4933 10.0934 16.4933ZM10.0934 4.17326C8.94124 4.17458 7.81537 4.51742 6.85805 5.15847C5.90074 5.79951 5.15496 6.70997 4.71498 7.77477C4.27499 8.83957 4.16056 10.0109 4.38613 11.1407C4.61171 12.2706 5.16717 13.3081 5.98231 14.1224C6.79745 14.9366 7.83567 15.4908 8.96575 15.7151C10.0958 15.9394 11.267 15.8236 12.3313 15.3824C13.3956 14.9412 14.3052 14.1944 14.9452 13.2364C15.5851 12.2783 15.9267 11.152 15.9267 9.99992C15.9249 8.45398 15.3096 6.97196 14.2158 5.87944C13.122 4.78692 11.6393 4.17326 10.0934 4.17326Z" fill="#575756"/>
<path fill-rule="evenodd" clip-rule="evenodd" d="M7.55255 13.8027C8.30463 14.3052 9.18884 14.5734 10.0934 14.5734C11.3063 14.5734 12.4695 14.0916 13.3272 13.2339C14.1849 12.3763 14.6667 11.213 14.6667 10.0001C14.6667 9.09557 14.3985 8.21137 13.8959 7.45929C13.3934 6.7072 12.6792 6.12103 11.8435 5.77488C11.0078 5.42874 10.0883 5.33817 9.20114 5.51464C8.314 5.6911 7.49911 6.12667 6.85952 6.76626C6.21993 7.40585 5.78436 8.22074 5.6079 9.10788C5.43143 9.99502 5.522 10.9146 5.86815 11.7502C6.21429 12.5859 6.80047 13.3002 7.55255 13.8027ZM8.02225 6.90855C8.63524 6.49876 9.35601 6.28003 10.0934 6.28003C11.0806 6.28003 12.0275 6.67174 12.7262 7.36919C13.4249 8.06663 13.8183 9.01281 13.82 10C13.8213 10.7374 13.6039 11.4585 13.1952 12.0723C12.7865 12.686 12.205 13.1647 11.5241 13.4478C10.8433 13.7309 10.0938 13.8056 9.37042 13.6626C8.64708 13.5195 7.98243 13.1651 7.46058 12.6442C6.93873 12.1233 6.58313 11.4593 6.4388 10.7362C6.29446 10.0131 6.36787 9.26345 6.64974 8.58211C6.9316 7.90076 7.40925 7.31834 8.02225 6.90855Z" fill="#575756"/>
<path d="M10.0932 12.6266C9.57372 12.6266 9.06588 12.4726 8.63392 12.184C8.20197 11.8953 7.8653 11.4851 7.6665 11.0051C7.46769 10.5252 7.41567 9.99705 7.51702 9.48752C7.61838 8.978 7.86854 8.50997 8.23589 8.14263C8.60323 7.77528 9.07126 7.52511 9.58078 7.42376C10.0903 7.32241 10.6184 7.37443 11.0984 7.57324C11.5784 7.77204 11.9886 8.10871 12.2772 8.54066C12.5658 8.97261 12.7199 9.48045 12.7199 9.99996C12.7181 10.6961 12.4408 11.3631 11.9486 11.8553C11.4564 12.3476 10.7893 12.6249 10.0932 12.6266Z" fill="#575756"/>
</svg>
