<svg width="20" height="20" viewBox="0 0 20 20" fill="none" xmlns="http://www.w3.org/2000/svg">
<g clip-path="url(#clip0_31_5911)">
<path d="M6.86662 11.139C7.23481 11.139 7.53328 10.8529 7.53328 10.4999C7.53328 10.147 7.23481 9.86084 6.86662 9.86084C6.49843 9.86084 6.19995 10.147 6.19995 10.4999C6.19995 10.8529 6.49843 11.139 6.86662 11.139Z" fill="#575756"/>
<path d="M14.9334 18.0414H5.06671V2.95865H15V18.0414H14.9334ZM15.4667 2H4.53338C4.39501 2.00897 4.26472 2.06572 4.16666 2.15973C4.0686 2.25374 4.0094 2.37863 4.00004 2.51128V18.4887C3.99915 18.5561 4.01233 18.623 4.03882 18.6854C4.0653 18.7478 4.10455 18.8045 4.15426 18.8522C4.20396 18.8998 4.26311 18.9374 4.32822 18.9628C4.39334 18.9882 4.46309 19.0009 4.53338 19H15.4667C15.537 19.0009 15.6068 18.9882 15.6719 18.9628C15.737 18.9374 15.7961 18.8998 15.8458 18.8522C15.8955 18.8045 15.9348 18.7478 15.9613 18.6854C15.9878 18.623 16.0009 18.5561 16 18.4887V2.51128C15.9907 2.37863 15.9315 2.25374 15.8334 2.15973C15.7354 2.06572 15.6051 2.00897 15.4667 2Z" fill="#575756"/>
</g>
<defs>
<clipPath id="clip0_31_5911">
<rect width="12" height="17" fill="white" transform="translate(4 2)"/>
</clipPath>
</defs>
</svg>
