<svg width="20" height="20" viewBox="0 0 20 20" fill="none" xmlns="http://www.w3.org/2000/svg">
<path d="M5.11335 16.2133L9.33335 12L10.7933 13.4533L6.57335 17.6667L5.11335 16.2133ZM9.18668 16.2133L12.7533 12.6667L13.42 12L14.88 13.4533L10.6667 17.6667L9.18668 16.2133ZM3.08002 8.60667L4.53335 7.15334L6.00002 8.60667L6.74002 9.33334L8.77335 11.3333L7.33335 12.8467L3.08002 8.60667ZM7.19335 8.65334L7.15335 8.60667L7.74668 8.02001L8.60668 7.15334L10.6467 9.15334L12.8467 11.3533L12.8067 11.4L11.3933 12.8133L7.19335 8.65334ZM11.2267 8.60667L12.6667 7.15334L16.9 11.3867L15.4667 12.8467L11.2267 8.60667ZM5.82668 7.27334L5.11335 6.57334L9.33335 2.33334L10.7933 3.79334L8.00002 6.57334L6.57335 8.00001L5.82668 7.27334ZM9.21335 6.60667L12 3.79334L13.4267 2.33334L14.8867 3.79334L10.6667 8.00001L9.21335 6.60667ZM13.4267 1.18001L11.3933 3.20667L9.33335 1.17334L3.93335 6.57334L1.93335 8.60667L6.74668 13.4267L3.95335 16.2133L6.57335 18.8267L8.60668 16.8267L10.6467 18.8267L16.0467 13.4267L18.08 11.3867L13.2667 6.57334L16.0467 3.79334L13.4267 1.18001Z" fill="#575756"/>
</svg>
