<svg
    width="24"
    height="24"
    viewBox="0 0 24 24"
    fill="none"
    xmlns="http://www.w3.org/2000/svg"
>
    <path
        fill-rule="evenodd"
        clip-rule="evenodd"
        d="M5 11C5 10.4477 5.44772 10 6 10H18C18.5523 10 19 10.4477 19 11C19 11.5523 18.5523 12 18 12H6C5.44772 12 5 11.5523 5 11Z"
        fill="currentColor"
    />
    <path
        fill-rule="evenodd"
        clip-rule="evenodd"
        d="M8 10C8.55228 10 9 10.4477 9 11L9 13C9 13.5523 8.55228 14 8 14C7.44772 14 7 13.5523 7 13L7 11C7 10.4477 7.44772 10 8 10Z"
        fill="currentColor"
    />
    <path
        fill-rule="evenodd"
        clip-rule="evenodd"
        d="M16 10C16.5523 10 17 10.4477 17 11L17 13C17 13.5523 16.5523 14 16 14C15.4477 14 15 13.5523 15 13L15 11C15 10.4477 15.4477 10 16 10Z"
        fill="currentColor"
    />
    <path
        fill-rule="evenodd"
        clip-rule="evenodd"
        d="M5 6H19C21.2091 6 23 7.79086 23 10V19C23 21.2091 21.2091 23 19 23H5C2.79086 23 1 21.2091 1 19V10C1 7.79086 2.79086 6 5 6ZM5 8C3.89543 8 3 8.89543 3 10V19C3 20.1046 3.89543 21 5 21H19C20.1046 21 21 20.1046 21 19V10C21 8.89543 20.1046 8 19 8H5Z"
        fill="currentColor"
    />
    <path
        fill-rule="evenodd"
        clip-rule="evenodd"
        d="M17 8H7V5C7 2.79086 8.79086 1 11 1H13C15.2091 1 17 2.79086 17 5V8ZM15 5C15 4.63571 14.9026 4.29417 14.7324 4C14.3866 3.4022 13.7403 3 13 3H11C10.2597 3 9.61337 3.4022 9.26756 4C9.09739 4.29417 9 4.63571 9 5V6H15V5Z"
        fill="currentColor"
    />
</svg>
