<svg width="20" height="20" viewBox="0 0 20 20" fill="none" xmlns="http://www.w3.org/2000/svg">
<g clip-path="url(#clip0_31_5910)">
<path fill-rule="evenodd" clip-rule="evenodd" d="M6.75741 8.00013L6.75738 8.0001L11 3.75743L8.87876 1.63614L2.5148 8.0001L4.63612 10.1214L6.75741 8.00013ZM1.10059 8.0001L8.87876 0.221924L11.7072 3.05032L14.5356 0.221924L18.7782 4.46456L14.2428 8.99999L17.0713 11.8285L9.2931 19.6067L6.4747 16.7883L4.24215 19.0208L-0.000488281 14.7782L3.93909 10.8386L1.10059 8.0001ZM10.293 11.5357L5.75757 16.0711L5.76759 16.0812L4.24215 17.6066L1.41373 14.7782L7.47459 8.71731L10.293 11.5357ZM7.1818 16.0812L9.2931 18.1925L15.6571 11.8285L13.5357 9.70718L11.0103 12.2326L11.0203 12.2426L7.1818 16.0812ZM8.17162 8.00013L11 10.8285L17.364 4.46456L14.5356 1.63614L12.4143 3.75743L12.4143 3.75746L8.17162 8.00013Z" fill="#575756"/>
</g>
<defs>
<clipPath id="clip0_31_5910">
<rect width="20" height="20" fill="white"/>
</clipPath>
</defs>
</svg>
