<svg
    width="24"
    height="24"
    viewBox="0 0 24 24"
    fill="none"
    xmlns="http://www.w3.org/2000/svg"
>
    <path
        fill-rule="evenodd"
        clip-rule="evenodd"
        d="M12 24C5.37258 24 0 18.6274 0 12C0 5.37258 5.37258 0 12 0C18.6274 0 24 5.37258 24 12C24 18.6274 18.6274 24 12 24ZM12 2C6.47715 2 2 6.47715 2 12C2 17.5228 6.47715 22 12 22C17.5228 22 22 17.5228 22 12C22 6.47715 17.5228 2 12 2Z"
        fill="currentColor"
    />
    <path
        fill-rule="evenodd"
        clip-rule="evenodd"
        d="M12 15C9.23858 15 7 12.7614 7 10C7 7.23858 9.23858 5 12 5C14.7614 5 17 7.23858 17 10C17 12.7614 14.7614 15 12 15ZM12 7C10.3431 7 9 8.34315 9 10C9 11.6569 10.3431 13 12 13C13.6569 13 15 11.6569 15 10C15 8.34315 13.6569 7 12 7Z"
        fill="currentColor"
    />
    <path
        d="M21.7491 19C21.3745 18.4797 20.9533 17.9827 20.4853 17.5147C15.799 12.8284 8.20103 12.8284 3.51474 17.5147C3.04675 17.9827 2.6255 18.4797 2.25098 19H4.85858C4.88189 18.9762 4.90535 18.9525 4.92895 18.9289C8.8342 15.0237 15.1658 15.0237 19.0711 18.9289C19.0947 18.9525 19.1181 18.9762 19.1415 19H21.7491Z"
        fill="currentColor"
    />
</svg>
