<svg
    width="24"
    height="24"
    viewBox="0 0 24 24"
    fill="none"
    xmlns="http://www.w3.org/2000/svg"
>
    <path
        d="M2 6C2 3.79086 3.79086 2 6 2H18C20.2091 2 22 3.79086 22 6V12V15.4289C22 16.4898 21.5786 17.5072 20.8284 18.2574L18.2574 20.8284C17.5072 21.5786 16.4898 22 15.4289 22H12H6C3.79086 22 2 20.2091 2 18V6Z"
        stroke="currentColor"
        stroke-width="2"
    />
    <path
        d="M22 14H20C17.2386 14 15 16.2386 15 19V21H17V19C17 17.3431 18.3431 16 20 16H22V14Z"
        fill="currentColor"
    />
    <path d="M7 7H17" stroke="currentColor" stroke-width="2" stroke-linecap="round" />
    <path d="M7 12H17" stroke="currentColor" stroke-width="2" stroke-linecap="round" />
    <path d="M7 17H11" stroke="currentColor" stroke-width="2" stroke-linecap="round" />
</svg>
